<svg id="Layer_1" data-name="Layer 1" xmlns="http://www.w3.org/2000/svg" xmlns:xlink="http://www.w3.org/1999/xlink" width="2121.79" height="1572.13" viewBox="0 0 2121.79 1572.13"><defs><style>.cls-1{fill:#fff;}.cls-2{fill:url(#linear-gradient);}</style><linearGradient id="linear-gradient" x1="98.91" y1="786.06" x2="548.21" y2="786.06" gradientUnits="userSpaceOnUse"><stop offset="0" stop-color="#00adbf"/><stop offset="1" stop-color="#002840"/></linearGradient></defs><path class="cls-1" d="M813.84,642.89H716.76L588.7,935.83H689.13l19.64-51.05H820.15l19.63,51.05H941.9ZM736.11,813.64l28.35-73.77,28.38,73.77Z"/><path class="cls-1" d="M957.81,935.84v-293h98.76v293Z"/><path class="cls-1" d="M1167.89,935.84V719.47H1082.1V642.89h270.35v76.58h-85.79V935.84Z"/><path class="cls-1" d="M1638.68,778.48l.15,23.74,14.08-23.74Zm-170.74,28.35V778.48h-17.58Z"/><polygon class="cls-1" points="1729.5 935.83 1639.55 935.83 1638.83 802.22 1652.91 778.48 1638.68 778.48 1638.83 802.22 1575.11 909.46 1531.55 909.46 1467.94 806.83 1467.94 778.48 1450.36 778.48 1467.94 806.83 1467.94 935.83 1377.99 935.83 1377.99 642.89 1459.15 642.89 1554.68 798.8 1647.47 642.89 1728.67 642.89 1729.5 935.83"/><path class="cls-1" d="M1886.45,942.53a299.11,299.11,0,0,1-71.14-8.37q-34.32-8.35-56.5-21.76l31.8-72a203.66,203.66,0,0,0,46.67,19.46,182.35,182.35,0,0,0,50,7.32q14.22,0,22.39-1.88t11.92-5.44a11.34,11.34,0,0,0,3.77-8.58q0-7.95-8.79-12.56T1893.36,831q-14.44-3.13-31.6-6.69a295,295,0,0,1-34.53-9.42,134.07,134.07,0,0,1-31.8-15.49,72.35,72.35,0,0,1-23.23-25.31q-8.79-15.71-8.79-39.13a86,86,0,0,1,15.28-49.6Q1794,663,1824.3,649.58t75.54-13.39a274.68,274.68,0,0,1,58.59,6.28,185,185,0,0,1,51.9,19.25l-29.72,71.56A224.89,224.89,0,0,0,1938.55,717a152.75,152.75,0,0,0-39.54-5.44q-14.23,0-22.6,2.51t-11.93,6.7a13.89,13.89,0,0,0-3.56,9.2q0,7.55,8.79,11.93t23.23,7.32q14.43,2.94,31.8,6.28a258.36,258.36,0,0,1,34.53,9.21,136.26,136.26,0,0,1,31.6,15.48,73.1,73.1,0,0,1,23.22,25.11q8.79,15.5,8.79,38.51a85.42,85.42,0,0,1-15.27,49.17q-15.28,22.39-45.41,36T1886.45,942.53Z"/><path class="cls-2" d="M365.76,421.12V609.3L228.12,527.42l-.54.87a39.36,39.36,0,0,0,.39-5.44,35.79,35.79,0,1,0-14,28.31l-.61,1.05L365.76,642.8V687L167.31,685a35.7,35.7,0,1,0-.07,28.82l198.52,2.09V847.48H167.28a35.7,35.7,0,1,0,0,28.82H365.76V923L213.28,1011.1A35.69,35.69,0,1,0,228,1040a36,36,0,0,0-.21-3.93l138-79.82V1151H548.21V421.12ZM192.24,540.57A17.72,17.72,0,1,1,210,522.85,17.73,17.73,0,0,1,192.24,540.57ZM134.6,717a17.71,17.71,0,1,1,17.73-17.68A17.69,17.69,0,0,1,134.6,717Zm0,162.61a17.71,17.71,0,1,1,17.73-17.69A17.69,17.69,0,0,1,134.6,879.58Zm57.64,178.06A17.71,17.71,0,1,1,210,1040,17.7,17.7,0,0,1,192.24,1057.64ZM394.58,487.47c36.27,5.7,63.79,32.53,63.79,64.63S430.85,611,394.58,616.72Zm0,229.65c36.27,5.69,63.79,32.53,63.79,64.62s-27.52,58.93-63.79,64.63Zm0,232c36.27,5.69,63.79,32.53,63.79,64.63s-27.52,58.93-63.79,64.62Zm124.82,173H394.58v-14.7c52.23-6.23,92.61-45.89,92.61-93.69s-40.38-87.46-92.61-93.7V875.44c52.23-6.24,92.61-45.9,92.61-93.7s-40.38-87.46-92.61-93.69V645.79c52.23-6.23,92.61-45.89,92.61-93.69s-40.38-87.46-92.61-93.7v-8.46H519.4Z"/></svg>